<mxfile host="Electron" modified="2024-12-05T10:17:03.443Z" agent="Mozilla/5.0 (Windows NT 10.0; Win64; x64) AppleWebKit/537.36 (KHTML, like Gecko) draw.io/22.0.2 Chrome/114.0.5735.289 Electron/25.8.4 Safari/537.36" etag="e9qimNA6u7UmEt9uFN_2" version="22.0.2" type="device">
  <diagram name="Page-1" id="KnOnaomhWAYG65ljYycm">
    <mxGraphModel dx="989" dy="582" grid="1" gridSize="10" guides="1" tooltips="1" connect="1" arrows="1" fold="1" page="1" pageScale="1" pageWidth="827" pageHeight="1169" math="0" shadow="0">
      <root>
        <mxCell id="0" />
        <mxCell id="1" parent="0" />
        <mxCell id="1Czi2QmBehLHRYkjX4Fs-2" value="" style="rounded=0;whiteSpace=wrap;html=1;" vertex="1" parent="1">
          <mxGeometry x="250" y="90" width="210" height="210" as="geometry" />
        </mxCell>
        <mxCell id="1Czi2QmBehLHRYkjX4Fs-8" value="" style="whiteSpace=wrap;html=1;aspect=fixed;" vertex="1" parent="1">
          <mxGeometry x="220" y="330" width="280" height="280" as="geometry" />
        </mxCell>
        <mxCell id="1Czi2QmBehLHRYkjX4Fs-13" style="edgeStyle=orthogonalEdgeStyle;rounded=0;orthogonalLoop=1;jettySize=auto;html=1;entryX=0;entryY=0.5;entryDx=0;entryDy=0;" edge="1" parent="1" source="1Czi2QmBehLHRYkjX4Fs-3" target="1Czi2QmBehLHRYkjX4Fs-10">
          <mxGeometry relative="1" as="geometry" />
        </mxCell>
        <mxCell id="1Czi2QmBehLHRYkjX4Fs-15" style="edgeStyle=orthogonalEdgeStyle;rounded=0;orthogonalLoop=1;jettySize=auto;html=1;" edge="1" parent="1" source="1Czi2QmBehLHRYkjX4Fs-3" target="1Czi2QmBehLHRYkjX4Fs-14">
          <mxGeometry relative="1" as="geometry" />
        </mxCell>
        <mxCell id="1Czi2QmBehLHRYkjX4Fs-3" value="Operator" style="shape=umlActor;verticalLabelPosition=bottom;verticalAlign=top;html=1;outlineConnect=0;" vertex="1" parent="1">
          <mxGeometry x="100" y="190" width="30" height="60" as="geometry" />
        </mxCell>
        <mxCell id="1Czi2QmBehLHRYkjX4Fs-5" value="Robot" style="shape=umlActor;verticalLabelPosition=bottom;verticalAlign=top;html=1;outlineConnect=0;" vertex="1" parent="1">
          <mxGeometry x="50" y="380" width="30" height="60" as="geometry" />
        </mxCell>
        <mxCell id="1Czi2QmBehLHRYkjX4Fs-7" value="Website" style="text;html=1;strokeColor=none;fillColor=none;align=center;verticalAlign=middle;whiteSpace=wrap;rounded=0;" vertex="1" parent="1">
          <mxGeometry x="250" y="90" width="60" height="30" as="geometry" />
        </mxCell>
        <mxCell id="1Czi2QmBehLHRYkjX4Fs-9" value="Fysieke Robot" style="text;html=1;strokeColor=none;fillColor=none;align=center;verticalAlign=middle;whiteSpace=wrap;rounded=0;" vertex="1" parent="1">
          <mxGeometry x="220" y="330" width="60" height="30" as="geometry" />
        </mxCell>
        <mxCell id="1Czi2QmBehLHRYkjX4Fs-12" style="edgeStyle=orthogonalEdgeStyle;rounded=0;orthogonalLoop=1;jettySize=auto;html=1;" edge="1" parent="1" source="1Czi2QmBehLHRYkjX4Fs-10" target="1Czi2QmBehLHRYkjX4Fs-11">
          <mxGeometry relative="1" as="geometry" />
        </mxCell>
        <mxCell id="1Czi2QmBehLHRYkjX4Fs-10" value="Besturing" style="rounded=1;whiteSpace=wrap;html=1;" vertex="1" parent="1">
          <mxGeometry x="260" y="230" width="120" height="60" as="geometry" />
        </mxCell>
        <mxCell id="1Czi2QmBehLHRYkjX4Fs-11" value="Sensoren besturing" style="rounded=1;whiteSpace=wrap;html=1;" vertex="1" parent="1">
          <mxGeometry x="240" y="390" width="120" height="60" as="geometry" />
        </mxCell>
        <mxCell id="1Czi2QmBehLHRYkjX4Fs-14" value="archief&lt;br&gt;van sensor data" style="rounded=1;whiteSpace=wrap;html=1;" vertex="1" parent="1">
          <mxGeometry x="290" y="160" width="120" height="60" as="geometry" />
        </mxCell>
        <mxCell id="1Czi2QmBehLHRYkjX4Fs-18" style="edgeStyle=orthogonalEdgeStyle;rounded=0;orthogonalLoop=1;jettySize=auto;html=1;entryX=0;entryY=0.5;entryDx=0;entryDy=0;fillColor=#60a917;strokeColor=#2D7600;startArrow=classic;startFill=1;" edge="1" parent="1" source="1Czi2QmBehLHRYkjX4Fs-5" target="1Czi2QmBehLHRYkjX4Fs-11">
          <mxGeometry relative="1" as="geometry" />
        </mxCell>
        <mxCell id="1Czi2QmBehLHRYkjX4Fs-19" value="data display" style="rounded=1;whiteSpace=wrap;html=1;" vertex="1" parent="1">
          <mxGeometry x="240" y="510" width="120" height="60" as="geometry" />
        </mxCell>
        <mxCell id="1Czi2QmBehLHRYkjX4Fs-21" style="edgeStyle=orthogonalEdgeStyle;rounded=0;orthogonalLoop=1;jettySize=auto;html=1;entryX=0.004;entryY=0.569;entryDx=0;entryDy=0;entryPerimeter=0;" edge="1" parent="1" source="1Czi2QmBehLHRYkjX4Fs-3" target="1Czi2QmBehLHRYkjX4Fs-19">
          <mxGeometry relative="1" as="geometry" />
        </mxCell>
        <mxCell id="1Czi2QmBehLHRYkjX4Fs-24" style="edgeStyle=orthogonalEdgeStyle;rounded=0;orthogonalLoop=1;jettySize=auto;html=1;entryX=1;entryY=0.5;entryDx=0;entryDy=0;" edge="1" parent="1" source="1Czi2QmBehLHRYkjX4Fs-22" target="1Czi2QmBehLHRYkjX4Fs-14">
          <mxGeometry relative="1" as="geometry" />
        </mxCell>
        <mxCell id="1Czi2QmBehLHRYkjX4Fs-25" style="edgeStyle=orthogonalEdgeStyle;rounded=0;orthogonalLoop=1;jettySize=auto;html=1;entryX=1;entryY=0.5;entryDx=0;entryDy=0;exitX=0.5;exitY=1;exitDx=0;exitDy=0;" edge="1" parent="1" source="1Czi2QmBehLHRYkjX4Fs-22" target="1Czi2QmBehLHRYkjX4Fs-19">
          <mxGeometry relative="1" as="geometry" />
        </mxCell>
        <mxCell id="1Czi2QmBehLHRYkjX4Fs-22" value="sensor data opslaan" style="rounded=1;whiteSpace=wrap;html=1;" vertex="1" parent="1">
          <mxGeometry x="370" y="450" width="120" height="60" as="geometry" />
        </mxCell>
        <mxCell id="1Czi2QmBehLHRYkjX4Fs-23" style="edgeStyle=orthogonalEdgeStyle;rounded=0;orthogonalLoop=1;jettySize=auto;html=1;entryX=0.665;entryY=0.998;entryDx=0;entryDy=0;entryPerimeter=0;startArrow=classic;startFill=1;endArrow=none;endFill=0;" edge="1" parent="1" source="1Czi2QmBehLHRYkjX4Fs-22" target="1Czi2QmBehLHRYkjX4Fs-11">
          <mxGeometry relative="1" as="geometry" />
        </mxCell>
      </root>
    </mxGraphModel>
  </diagram>
</mxfile>
